<?xml version="1.0" encoding="UTF-8"?>
<svg version="1.1" xmlns="http://www.w3.org/2000/svg" width="3073" height="766">
<path d="M0 0 C0.82113281 0.74894531 1.64226562 1.49789062 2.48828125 2.26953125 C4.52523925 4.11477555 6.59520847 5.9058167 8.6875 7.6875 C16.97995154 14.92026706 24.81497016 22.8852433 31.8125 31.375 C32.22935059 31.87805664 32.64620117 32.38111328 33.07568359 32.89941406 C86.36986845 97.47484973 111.71809769 179.17679077 103.98779297 262.58642578 C98.44131323 312.86306247 81.33558189 363.03245206 51.8125 404.375 C51.04268799 405.45394531 51.04268799 405.45394531 50.25732422 406.5546875 C38.04751612 423.59259075 38.04751612 423.59259075 30.97265625 431.07421875 C29.12698576 433.04004138 27.3648514 435.04373396 25.60546875 437.0859375 C15.68241345 448.46604902 4.79004148 459.17764698 -7.1875 468.375 C-8.23778253 469.22396437 -9.28583706 470.07569007 -10.33203125 470.9296875 C-51.06538949 503.96600884 -99.80449846 524.14874723 -151.1875 533.375 C-152.52820557 533.62491699 -152.52820557 533.62491699 -153.89599609 533.87988281 C-184.56997914 539.34586098 -219.56521616 538.94069595 -250.1875 533.375 C-251.17331055 533.20871094 -252.15912109 533.04242187 -253.17480469 532.87109375 C-310.30061303 523.14908414 -363.3295967 497.30655158 -406.1875 458.375 C-406.82171875 457.80249512 -407.4559375 457.22999023 -408.109375 456.64013672 C-471.35981814 399.35104785 -503.11943228 320.27759953 -507.30126953 236.08447266 C-507.47692841 231.83662119 -507.38580748 227.6187801 -507.1875 223.375 C-507.14641113 222.40288574 -507.10532227 221.43077148 -507.06298828 220.42919922 C-503.9967076 153.43145613 -481.23612913 90.66437426 -439.1875 38.375 C-437.97513672 36.85326172 -437.97513672 36.85326172 -436.73828125 35.30078125 C-430.02743456 27.09011438 -422.59650557 19.57343796 -415.125 12.0625 C-414.36494659 11.29454605 -414.36494659 11.29454605 -413.58953857 10.51107788 C-406.79675821 3.66379382 -399.79022695 -2.6667897 -392.1875 -8.625 C-391.50937256 -9.1624585 -390.83124512 -9.69991699 -390.13256836 -10.25366211 C-349.31659875 -42.29605524 -300.45029178 -63.60416478 -249.1875 -71.625 C-247.83736816 -71.84929687 -247.83736816 -71.84929687 -246.45996094 -72.078125 C-159.36056114 -86.11568023 -65.58776469 -58.92961282 0 0 Z M-361.69921875 52.00390625 C-363.80559341 54.01107959 -365.95361653 55.88918872 -368.1875 57.75 C-411.02162129 95.19673696 -436.27400125 154.60910516 -441.1875 210.375 C-441.33316374 213.40025051 -441.37356968 216.42075659 -441.390625 219.44921875 C-441.39763931 220.28723022 -441.40465363 221.1252417 -441.41188049 221.98864746 C-441.42929347 224.67998693 -441.43573338 227.37110626 -441.4375 230.0625 C-441.43817474 230.98261871 -441.43884949 231.90273743 -441.43954468 232.85073853 C-441.42353523 246.58280859 -440.93652321 259.88151696 -438.1875 273.375 C-438.02121094 274.24431152 -437.85492188 275.11362305 -437.68359375 276.00927734 C-430.05507895 315.37382639 -413.06212721 352.65476078 -387.1875 383.375 C-386.74825195 383.90303223 -386.30900391 384.43106445 -385.85644531 384.97509766 C-376.68420315 395.98861931 -367.17573655 406.25723181 -355.9140625 415.203125 C-354.13433126 416.62079057 -352.37751353 418.06784997 -350.6484375 419.546875 C-320.53537004 445.20211677 -281.75069159 461.06460501 -243.1875 468.375 C-241.90311035 468.6227417 -241.90311035 468.6227417 -240.59277344 468.87548828 C-214.41696764 473.68582736 -185.29766059 473.37365622 -159.1875 468.375 C-158.31416016 468.21402832 -157.44082031 468.05305664 -156.54101562 467.88720703 C-126.00381738 462.09892892 -96.11811347 450.61784532 -70.1875 433.375 C-69.51315918 432.92688965 -68.83881836 432.4787793 -68.14404297 432.01708984 C-45.9631093 417.1171901 -25.0714456 398.72154373 -9.36572266 376.99755859 C-8.17733579 375.36100262 -6.95732531 373.75238712 -5.73046875 372.14453125 C31.45664521 322.66663691 46.28084941 257.70932816 37.84765625 196.78125 C30.85362949 151.38605742 11.85323552 109.16482238 -18.1875 74.375 C-18.868125 73.58351563 -19.54875 72.79203125 -20.25 71.9765625 C-30.38483329 60.4630938 -41.1071527 49.85625006 -53.42089844 40.69726562 C-55.18571058 39.37633935 -56.92556486 38.02718163 -58.6640625 36.671875 C-91.81972388 11.17243085 -132.82035269 -3.9143658 -174.1875 -8.625 C-175.00766602 -8.7192627 -175.82783203 -8.81352539 -176.67285156 -8.91064453 C-242.78231189 -15.73650126 -313.2712012 5.85327818 -361.69921875 52.00390625 Z " fill="#0067B9" transform="translate(554.1875,145.625)"/>
<path d="M0 0 C2.20764236 1.79159847 2.20764236 1.79159847 4.28295898 1.29077148 C6.6424945 0.47727811 8.77430718 -0.52965439 10.99609375 -1.66796875 C52.73217866 -22.61998348 104.93301578 -34.46302226 150.66796875 -19.7578125 C174.21885649 -11.59901194 192.13567949 3.31718519 203.53808594 25.70166016 C213.34433613 46.35355775 213.57600345 69.30347928 213.53149414 91.6652832 C213.53121157 93.66717528 213.53137137 95.66906746 213.53193665 97.67095947 C213.53222189 103.06878704 213.52636938 108.46659209 213.51936269 113.86441445 C213.51308362 119.51916147 213.51252176 125.17390909 213.51133728 130.82865906 C213.50823734 141.52031159 213.50004206 152.21195382 213.48998779 162.90360183 C213.47878502 175.08263029 213.47330573 187.26165925 213.46829236 199.44069159 C213.45785826 224.47869724 213.4395295 249.51668878 213.41796875 274.5546875 C191.96796875 274.5546875 170.51796875 274.5546875 148.41796875 274.5546875 C148.39814941 268.90263184 148.37833008 263.25057617 148.35791016 257.42724609 C148.29095018 238.73560358 148.21340942 220.04401596 148.13044167 201.35243797 C148.08040477 190.02175611 148.03396107 178.69108117 147.99609375 167.36035156 C147.96306406 157.47991401 147.92317282 147.59953155 147.87517869 137.71915495 C147.85002247 132.49175184 147.82820955 127.26438476 147.81462479 122.03693771 C147.80170511 117.10725002 147.77954599 112.17768658 147.75058556 107.24806786 C147.74158662 105.44789799 147.73583774 103.64770816 147.73375511 101.84751701 C147.70578048 81.32239036 146.04875199 62.15894151 131.390625 46.37109375 C118.95621205 34.47632983 103.53675939 30.97926712 86.79296875 31.1796875 C85.56602295 31.18911377 84.33907715 31.19854004 83.07495117 31.20825195 C61.85643388 31.55819925 43.71725767 36.64732338 24.41796875 45.5546875 C24.08796875 121.1246875 23.75796875 196.6946875 23.41796875 274.5546875 C1.96796875 274.5546875 -19.48203125 274.5546875 -41.58203125 274.5546875 C-41.59137695 268.61017578 -41.60072266 262.66566406 -41.61035156 256.54101562 C-41.64415556 236.87546362 -41.69952414 217.21001568 -41.76593399 197.54454803 C-41.80566439 185.62426034 -41.83808732 173.70403808 -41.85302734 161.78369141 C-41.86607499 151.38827287 -41.89311889 140.9929987 -41.93664432 130.5976615 C-41.95918917 125.09851759 -41.97494613 119.59955127 -41.9739151 114.10035706 C-41.97316435 108.9128396 -41.99128038 103.72571369 -42.02319908 98.53829765 C-42.03164212 96.645444 -42.03348658 94.75254613 -42.02783394 92.85968208 C-41.9842338 75.99967412 -43.98195865 60.53257015 -53.83203125 46.3046875 C-64.57394081 35.56277794 -78.72954399 31.38368424 -93.6015625 31.17431641 C-117.65916761 31.21355627 -139.19367202 36.58990033 -160.73828125 47.234375 C-163.58203125 48.5546875 -163.58203125 48.5546875 -165.58203125 48.5546875 C-165.58203125 123.1346875 -165.58203125 197.7146875 -165.58203125 274.5546875 C-187.03203125 274.5546875 -208.48203125 274.5546875 -230.58203125 274.5546875 C-230.58203125 177.5346875 -230.58203125 80.5146875 -230.58203125 -19.4453125 C-210.45203125 -19.4453125 -190.32203125 -19.4453125 -169.58203125 -19.4453125 C-169.08703125 -10.5353125 -169.08703125 -10.5353125 -168.58203125 -1.4453125 C-166.31328125 -2.6209375 -164.04453125 -3.7965625 -161.70703125 -5.0078125 C-112.22173709 -29.89327428 -45.18215357 -37.85359552 0 0 Z " fill="#333E48" transform="translate(2076.58203125,303.4453125)"/>
<path d="M0 0 C1.32763672 1.70458984 1.32763672 1.70458984 2.6796875 3.9609375 C3.18983398 4.81083252 3.69998047 5.66072754 4.22558594 6.53637695 C4.76989258 7.47312256 5.31419922 8.40986816 5.875 9.375 C6.44508789 10.35235107 7.01517578 11.32970215 7.60253906 12.33666992 C49.08443464 84.67968501 59.84590466 169.07339053 38.55834961 249.57446289 C29.66180864 282.01553617 15.58837004 313.56949222 -4 341 C-4.51320801 341.71929688 -5.02641602 342.43859375 -5.55517578 343.1796875 C-17.76498388 360.21759075 -17.76498388 360.21759075 -24.83984375 367.69921875 C-26.68551424 369.66504138 -28.4476486 371.66873396 -30.20703125 373.7109375 C-40.13008655 385.09104902 -51.02245852 395.80264698 -63 405 C-64.05028253 405.84896437 -65.09833706 406.70069007 -66.14453125 407.5546875 C-106.87788949 440.59100884 -155.61699846 460.77374723 -207 470 C-208.34070557 470.24991699 -208.34070557 470.24991699 -209.70849609 470.50488281 C-240.38247914 475.97086098 -275.37771616 475.56569595 -306 470 C-306.98581055 469.83371094 -307.97162109 469.66742187 -308.98730469 469.49609375 C-366.11311303 459.77408414 -419.1420967 433.93155158 -462 395 C-462.63421875 394.42749512 -463.2684375 393.85499023 -463.921875 393.26513672 C-481.96517186 376.92242059 -496.70248845 358.64494587 -511 339 C-508.3827858 336.25681026 -505.78359447 334.02877484 -502.61791992 331.94726562 C-501.7599028 331.37987671 -500.90188568 330.81248779 -500.01786804 330.22790527 C-499.09802628 329.62675903 -498.17818451 329.02561279 -497.23046875 328.40625 C-496.27610428 327.77771118 -495.32173981 327.14917236 -494.3384552 326.50158691 C-492.32175823 325.17475543 -490.30354769 323.85022201 -488.28393555 322.52783203 C-485.20597797 320.51210108 -482.13289473 318.48911205 -479.06054688 316.46484375 C-477.09663785 315.17404745 -475.13245404 313.88366911 -473.16796875 312.59375 C-472.25419968 311.99260376 -471.3404306 311.39145752 -470.39897156 310.77209473 C-465.6781915 307.68437163 -460.93394746 304.73505448 -456 302 C-455.21238281 303.05316406 -454.42476562 304.10632813 -453.61328125 305.19140625 C-441.11523187 321.78895532 -428.09021063 337.78938596 -411.76171875 350.79296875 C-409.96991323 352.22489254 -408.19984587 353.68461728 -406.45703125 355.17578125 C-376.34091602 380.82687486 -337.56361373 396.68952499 -299 404 C-297.71561035 404.2477417 -297.71561035 404.2477417 -296.40527344 404.50048828 C-270.22946764 409.31082736 -241.11016059 408.99865622 -215 404 C-214.12666016 403.83902832 -213.25332031 403.67805664 -212.35351562 403.51220703 C-181.81631738 397.72392892 -151.93061347 386.24284532 -126 369 C-125.32565918 368.55188965 -124.65131836 368.1037793 -123.95654297 367.64208984 C-102.12589875 352.97749478 -81.69806229 334.98930232 -66.19433594 313.63867188 C-64.99766579 311.99679738 -63.77141293 310.38083212 -62.5390625 308.765625 C-25.35939084 259.28067663 -10.53108279 194.33843043 -18.96484375 133.40625 C-24.06619059 100.29562142 -35.5596518 69.46554612 -52.90600586 40.88085938 C-54.02470364 38.95752805 -55.02586489 36.99987635 -56 35 C-46.37147648 27.77718302 -36.38674863 21.07773779 -26.390625 14.37866211 C-24.44620761 13.07291357 -22.50484457 11.76260639 -20.56640625 10.44799805 C-17.74877887 8.53735357 -14.92247109 6.64026232 -12.09375 4.74609375 C-11.22504272 4.15356308 -10.35633545 3.56103241 -9.46130371 2.95054626 C-8.65616333 2.41571121 -7.85102295 1.88087616 -7.02148438 1.32983398 C-6.31519897 0.85432602 -5.60891357 0.37881805 -4.88122559 -0.11109924 C-3 -1 -3 -1 0 0 Z " fill="#68B2E6" transform="translate(610,209)"/>
<path d="M0 0 C83.82 0 167.64 0 254 0 C254 19.14 254 38.28 254 58 C192.62 58 131.24 58 68 58 C68 97.27 68 136.54 68 177 C122.12 177 176.24 177 232 177 C232 196.14 232 215.28 232 235 C177.88 235 123.76 235 68 235 C68 290.11 68 345.22 68 402 C45.56 402 23.12 402 0 402 C0 269.34 0 136.68 0 0 Z " fill="#333E48" transform="translate(786,176)"/>
<path d="M0 0 C0.74134186 -0.00100708 1.48268372 -0.00201416 2.24649048 -0.00305176 C20.75363594 0.01383546 39.06681217 1.44093496 56.75 7.25 C57.3987207 7.45995605 58.04744141 7.66991211 58.71582031 7.88623047 C72.75599186 12.50921378 84.55301985 19.50484854 95.75 29.25 C96.66845703 30.04277344 96.66845703 30.04277344 97.60546875 30.8515625 C118.18640766 49.97252634 125.01088937 79.29314171 126.75 106.25 C126.8834479 110.36140447 126.90372835 114.46915482 126.90771484 118.58251953 C126.91279556 119.75195099 126.91787628 120.92138245 126.92311096 122.12625122 C126.93374406 124.64694619 126.94239139 127.16765019 126.94923019 129.68835831 C126.96114849 133.7038988 126.98036773 137.71933829 127.00234985 141.73483276 C127.06370569 153.14626349 127.11796934 164.55768874 127.15136719 175.96923828 C127.16994537 182.29012264 127.19916421 188.61087209 127.2393719 194.93165672 C127.26006829 198.25568345 127.27413321 201.57939576 127.27817917 204.90350723 C127.31819327 234.64962146 130.11996374 263.80072523 139.83203125 292.0703125 C140.75 295.25 140.75 295.25 140.75 300.25 C121.28 300.25 101.81 300.25 81.75 300.25 C76.125 289 76.125 289 75.75 284.25 C75.1737085 284.485979 74.59741699 284.72195801 74.00366211 284.96508789 C52.36842897 293.76806602 30.9276821 300.90359143 7.75 304.25 C7.04166016 304.353125 6.33332031 304.45625 5.60351562 304.5625 C-27.79969819 308.85676073 -65.39113388 304.42676174 -92.7265625 283.37109375 C-100.81969786 276.56834994 -107.06021046 269.4718568 -112.25 260.25 C-112.71148438 259.44949219 -113.17296875 258.64898438 -113.6484375 257.82421875 C-124.5864619 237.57230084 -126.10542279 211.49576847 -120.25 189.4921875 C-112.87967901 165.87806696 -97.9721538 148.0715803 -76.25 136.25 C-54.91177883 125.07670005 -31.23679383 119.16389376 -7.13671875 119.046875 C-5.69689384 119.03662544 -5.69689384 119.03662544 -4.22798157 119.02616882 C-1.13111847 119.00913619 1.96559279 119.00284136 5.0625 119 C6.1141333 118.99799591 7.1657666 118.99599182 8.24926758 118.993927 C24.63227904 118.98626642 40.54064628 119.74253145 56.75 122.25 C58.14556759 122.45107191 59.54136779 122.65054296 60.9375 122.84765625 C61.865625 122.98042969 62.79375 123.11320312 63.75 123.25 C62.51519408 103.66627921 61.09800112 85.01419213 46.25 70.4375 C25.43119723 53.00412564 -4.31044484 53.53542385 -29.8671875 55.74609375 C-48.19973411 57.64843338 -66.50705436 61.11073304 -84.07617188 66.72607422 C-87.36319072 67.76987933 -89.7450981 68.25 -93.25 68.25 C-95.37284806 62.3618726 -97.49019672 56.47178887 -99.60375977 50.58032227 C-100.32320138 48.57693911 -101.04389405 46.57400475 -101.76586914 44.5715332 C-102.80425096 41.69079191 -103.83810192 38.80845901 -104.87109375 35.92578125 C-105.19403915 35.03288895 -105.51698456 34.13999664 -105.84971619 33.220047 C-106.14995193 32.37955307 -106.45018768 31.53905914 -106.75952148 30.6730957 C-107.02377426 29.93807327 -107.28802704 29.20305084 -107.56028748 28.445755 C-108.30717623 26.06797489 -108.80170355 23.70010327 -109.25 21.25 C-73.5476942 8.6957113 -38.07437967 0.03617367 0 0 Z M-51.625 183.625 C-60.9786299 194.67928988 -61.29141396 207.39380276 -60.25 221.25 C-58.20714707 231.65103978 -51.86134458 240.21176635 -43.25 246.25 C-21.81546477 259.58031166 7.38651653 256.09817557 30.89550781 250.9934082 C42.3477866 248.3075357 53.01225935 244.02232918 63.75 239.25 C63.75 216.15 63.75 193.05 63.75 169.25 C47.22815991 163.74271997 29.49985212 163.9374638 12.25 163.875 C11.35575317 163.86732605 10.46150635 163.8596521 9.54016113 163.85174561 C-12.90025356 163.69803005 -35.39898695 166.47263998 -51.625 183.625 Z " fill="#333E48" transform="translate(1169.25,277.75)"/>
<path d="M0 0 C1.11400681 -0.00101212 1.11400681 -0.00101212 2.2505188 -0.00204468 C39.55301184 0.0514023 73.73574076 7.28189253 100.8671875 34.36328125 C124.68323885 59.7083787 127.03019811 94.22397396 127.05496025 127.15587807 C127.05867977 131.14298895 127.07522077 135.12993946 127.09571838 139.11698914 C127.14436913 149.02348258 127.17556447 158.93002011 127.19702148 168.83660889 C127.21373464 176.54009653 127.2370716 184.24343953 127.28004223 191.94683141 C127.297885 195.24627517 127.30861552 198.54535615 127.30874443 201.84487343 C127.31034177 231.8589393 129.09566442 262.88255407 139.83203125 291.2265625 C140.75 294.25 140.75 294.25 140.75 300.25 C121.28 300.25 101.81 300.25 81.75 300.25 C76.125 289 76.125 289 75.75 284.25 C75.02224365 284.55180176 74.2944873 284.85360352 73.54467773 285.16455078 C52.11263971 293.98762788 30.78130763 300.94963736 7.75 304.25 C7.09322266 304.3442627 6.43644531 304.43852539 5.75976562 304.53564453 C-18.64095539 307.66695836 -44.12858707 305.71521676 -67.25 297.25 C-68.31605469 296.86972656 -69.38210937 296.48945312 -70.48046875 296.09765625 C-90.84761778 288.27224453 -106.37974746 272.90312542 -115.4921875 253.31640625 C-124.94732971 231.98468298 -126.18478937 205.31128097 -118.25 183.25 C-114.50764481 174.0475571 -109.80455741 165.74308526 -103.25 158.25 C-102.74339844 157.60160156 -102.23679687 156.95320312 -101.71484375 156.28515625 C-82.34369479 132.24970115 -48.13058911 122.63564414 -18.71005249 119.4604187 C-14.57248813 119.10651531 -10.44371321 119.06772819 -6.29296875 119.046875 C-5.35943069 119.04004196 -4.42589264 119.03320892 -3.46406555 119.02616882 C-0.45517331 119.00915763 2.55356248 119.00284257 5.5625 119 C6.58601563 118.99799591 7.60953125 118.99599182 8.6640625 118.993927 C27.24793487 118.98501204 45.41413681 120.01610632 63.75 123.25 C63.10505073 104.88006568 61.09278302 85.6739215 47.875 71.625 C32.6702813 58.24367116 12.77496133 54.84505796 -6.875 54.9375 C-8.1333667 54.94241455 -9.3917334 54.9473291 -10.68823242 54.95239258 C-35.50706435 55.25583933 -60.41430569 59.16421462 -84.07641602 66.72607422 C-87.36334656 67.76998485 -89.74515754 68.25 -93.25 68.25 C-98.53 53.07 -103.81 37.89 -109.25 22.25 C-105.48653109 18.48653109 -99.67329992 17.58686906 -94.6875 16 C-94.0611969 15.80024567 -93.4348938 15.60049133 -92.78961182 15.39468384 C-62.56774706 5.79852916 -31.75647457 0.02616476 0 0 Z M-51.5625 183.6875 C-60.2236916 194.41202257 -61.43742205 206.95384164 -60.25 220.25 C-58.15533918 231.09225004 -52.42228498 240.04106863 -43.25 246.25 C-18.95700128 259.78027777 11.90782144 256.31888736 37.75 249.25 C46.71440598 246.53852069 55.18095734 243.0584634 63.75 239.25 C63.75 216.15 63.75 193.05 63.75 169.25 C47.22815991 163.74271997 29.49985212 163.9374638 12.25 163.875 C11.35575317 163.86732605 10.46150635 163.8596521 9.54016113 163.85174561 C-12.82205621 163.6985657 -35.62347613 166.32816707 -51.5625 183.6875 Z " fill="#333E48" transform="translate(2461.25,277.75)"/>
<path d="M0 0 C6.75688974 4.29983893 13.49834836 8.60604519 20.1875 13.0078125 C21.03098999 13.56230072 21.87447998 14.11678894 22.74353027 14.68807983 C25.49658282 16.4990297 28.24844666 18.31177315 31 20.125 C31.95962646 20.75704346 32.91925293 21.38908691 33.90795898 22.0402832 C48.16711486 31.43641531 62.3580348 40.92856277 76.5 50.5 C91.75202134 60.82162084 107.06443764 71.04695754 122.4375 81.1875 C123.40059082 81.82381348 124.36368164 82.46012695 125.35595703 83.11572266 C128.06764752 84.90654977 130.78144195 86.69413467 133.49609375 88.48046875 C134.30126938 89.01234299 135.10644501 89.54421722 135.9360199 90.09220886 C136.6795723 90.58022476 137.42312469 91.06824066 138.18920898 91.57104492 C138.832285 91.99431564 139.47536102 92.41758636 140.13792419 92.85368347 C142.04307603 94.02651813 143.9850917 95.02996884 146 96 C147.07217773 95.27337158 148.14435547 94.54674316 149.24902344 93.7980957 C170.65012774 79.30095451 192.10947395 64.9020115 213.71795654 50.71560669 C229.80675991 40.14932247 245.78809554 29.4300759 261.71875 18.62695312 C269.16222717 13.58254587 276.61004703 8.54986265 284.1640625 3.671875 C284.74827972 3.2933136 285.33249695 2.9147522 285.93441772 2.52471924 C289.87637901 0 289.87637901 0 291 0 C291.11677516 24.40847143 291.20495978 48.81690102 291.25906086 73.22559547 C291.28484806 84.55885783 291.32000864 95.89194667 291.37719727 107.22509766 C291.4270162 117.10249076 291.45928726 126.97975821 291.47044247 136.85727346 C291.47696374 142.08793591 291.49230158 147.31823887 291.52865028 152.54878616 C291.56258574 157.47195221 291.57305784 162.39461064 291.56553841 167.31788254 C291.56691404 169.12467965 291.57686116 170.93149372 291.59602737 172.7381897 C291.62092809 175.20650452 291.61491734 177.67290623 291.60127258 180.14126587 C291.61583679 180.8552871 291.630401 181.56930833 291.64540654 182.30496657 C291.58883892 186.09399416 290.96524115 188.50316099 288.64992046 191.42867088 C285.17099002 194.8044232 282.86383933 195.12510563 278.21114063 195.12304783 C277.21936654 195.12503888 276.22759245 195.12702993 275.20576459 195.12908131 C273.56716483 195.12471205 273.56716483 195.12471205 271.89546204 195.12025452 C270.73725344 195.12110894 269.57904485 195.12196337 268.38573903 195.12284368 C265.16585679 195.12420876 261.94601455 195.12107301 258.72613704 195.11606562 C255.2558097 195.11175538 251.78548429 195.11320795 248.31515503 195.1139679 C242.30088672 195.11449276 236.28662925 195.11134981 230.27236366 195.10573006 C221.5766986 195.09761007 212.88103879 195.09499932 204.18537035 195.09374207 C190.07792296 195.09155233 175.97048136 195.08489437 161.86303711 195.07543945 C148.15730823 195.0662633 134.45158093 195.05919492 120.74584961 195.05493164 C119.46612556 195.05452964 119.46612556 195.05452964 118.16054851 195.05411953 C111.48856277 195.05204016 104.816577 195.05008322 98.14459121 195.04816496 C65.42972217 195.0387278 32.71486759 195.01861032 0 195 C0 130.65 0 66.3 0 0 Z " fill="#333E47" transform="translate(208,279)"/>
<path d="M0 0 C1.11290405 -0.00101212 1.11290405 -0.00101212 2.24829102 -0.00204468 C37.00083448 0.04762038 71.31502233 5.98028581 104.1875 17.25 C101.84483486 26.41872869 98.99858515 35.41632309 96.05395508 44.40576172 C95.51288147 46.06759543 94.97882181 47.73172742 94.45141602 49.39794922 C93.68257031 51.82540973 92.89267885 54.24506821 92.09765625 56.6640625 C91.8652272 57.41184967 91.63279816 58.15963684 91.39332581 58.93008423 C89.70021509 63.96805958 89.70021509 63.96805958 87.29394531 65.29125977 C84.87186879 65.24381761 82.90392153 64.85208574 80.57421875 64.17578125 C79.66760498 63.9221582 78.76099121 63.66853516 77.8269043 63.40722656 C76.85277588 63.1284668 75.87864746 62.84970703 74.875 62.5625 C63.07407805 59.3397282 51.27522585 57.07939476 39.1875 55.25 C38.46981445 55.13140625 37.75212891 55.0128125 37.01269531 54.890625 C26.57841539 53.18292015 16.06606769 53.00153141 5.51449585 52.89953613 C3.95161516 52.88348796 2.38878121 52.8615131 0.82608032 52.83288574 C-13.50425846 52.59819389 -28.7185565 53.78423955 -40.8125 62.25 C-41.72 62.8275 -42.6275 63.405 -43.5625 64 C-49.09243041 69.52993041 -51.57553307 75.70422495 -51.9453125 83.48046875 C-51.59222924 90.8432932 -49.14340237 98.03041578 -43.8125 103.25 C-26.63151846 116.62935784 -3.49253143 121.25437699 17.125 126.6875 C36.07080891 131.70737792 54.54772797 137.64069181 72.1875 146.25 C73.36699219 146.82492187 74.54648438 147.39984375 75.76171875 147.9921875 C95.34137103 158.04848228 111.07631554 172.41489249 118.6875 193.3125 C124.45546297 216.07535385 120.91645515 241.32674848 109.24316406 261.51953125 C101.20350748 274.69832076 89.65343282 283.25511041 76.1875 290.25 C75.32898437 290.71148438 74.47046875 291.17296875 73.5859375 291.6484375 C58.7244335 299.05559981 41.56546094 302.33434624 25.1875 304.25 C24.42187744 304.3442627 23.65625488 304.43852539 22.86743164 304.53564453 C13.56423274 305.54027859 4.22143306 305.49371099 -5.125 305.5 C-6.48134048 305.50101212 -6.48134048 305.50101212 -7.86508179 305.50204468 C-47.07874207 305.45585764 -86.83377412 299.64293598 -123.8125 286.25 C-123.19857386 280.37087678 -121.59974419 275.16483541 -119.65234375 269.59765625 C-119.34301407 268.69752304 -119.03368439 267.79738983 -118.71498108 266.86997986 C-117.73251689 264.0154244 -116.74140446 261.16396119 -115.75 258.3125 C-115.07950335 256.36933886 -114.40957539 254.42598139 -113.74023438 252.48242188 C-112.10422935 247.73598372 -110.46046524 242.99229814 -108.8125 238.25 C-104.39824013 238.82767623 -100.14799764 239.58521971 -95.83984375 240.703125 C-53.44279403 251.46310808 4.88437571 265.59715871 45.625 243.375 C52.11489734 237.99313391 55.88828893 232.73817897 57.1875 224.25 C57.58074103 215.69402858 55.35501056 210.10594888 49.86328125 203.70703125 C34.9493725 189.10627544 9.53456828 184.76267487 -9.9375 179.875 C-43.61974354 171.41958795 -84.49978551 161.02715967 -103.94042969 129.3581543 C-114.98888161 110.63433773 -117.62498613 85.45380046 -112.25 64.375 C-108.67035565 52.61869434 -103.08064736 42.38847866 -94.8125 33.25 C-94.14734375 32.49203125 -93.4821875 31.7340625 -92.796875 30.953125 C-69.58210715 6.01874472 -32.41282355 0.02669398 0 0 Z " fill="#333E48" transform="translate(1468.8125,277.75)"/>
<path d="M0 0 C21.45 0 42.9 0 65 0 C65 23.43 65 46.86 65 71 C89.42 71 113.84 71 139 71 C139 88.49 139 105.98 139 124 C114.58 124 90.16 124 65 124 C65.06151129 152.29794553 65.06151129 152.29794553 65.16015625 180.59570312 C65.2086453 192.14135542 65.25310899 203.68692032 65.27099609 215.23266602 C65.28404411 223.64271826 65.3110888 232.05259206 65.35461307 240.46254379 C65.37715729 244.91140352 65.39291493 249.36004376 65.39188385 253.80896568 C65.39113305 258.00583612 65.40925059 262.20222265 65.44116783 266.39896774 C65.44961029 267.93025183 65.4514557 269.46159057 65.44580269 270.9928875 C65.39881918 285.68995082 67.76326795 297.52793274 78.1875 308.25 C90.92517566 316.17566485 104.79906854 315.6640335 119.0625 313.625 C120.00416016 313.49867188 120.94582031 313.37234375 121.91601562 313.2421875 C126.13592417 312.6548655 130.25126528 311.99383855 134.37109375 310.8984375 C137.49872678 310.12410424 139.82859755 309.92166013 143 310 C145.72140727 320.15891116 147.71635203 330.42679018 149.6875 340.75 C150.01076509 342.42974577 150.33433072 344.10943373 150.65820312 345.7890625 C151.4422626 349.85871797 152.22227111 353.9291302 153 358 C138.85913695 363.18746167 124.91888187 366.87390833 110 369 C109.29166016 369.103125 108.58332031 369.20625 107.85351562 369.3125 C79.66121332 372.95021643 49.08155904 370.37833534 25.57421875 353.23046875 C9.68142656 340.19234045 2.72241281 320.62899262 0.45729065 300.76907349 C-0.2613193 293.25167575 -0.13130927 285.71070603 -0.11352539 278.16748047 C-0.11324289 276.48129783 -0.11340248 274.79511506 -0.1139679 273.1089325 C-0.11425341 268.558006 -0.10839651 264.00710615 -0.10139394 259.45618582 C-0.09511938 254.69028453 -0.09455336 249.92438256 -0.09336853 245.15847778 C-0.09026727 236.14544128 -0.0820702 227.13241698 -0.07201904 218.11938584 C-0.06082038 207.85332916 -0.05533801 197.58727189 -0.05032361 187.32121062 C-0.03988653 166.2141321 -0.0215561 145.1070703 0 124 C-15.51 124 -31.02 124 -47 124 C-47 106.51 -47 89.02 -47 71 C-31.49 71 -15.98 71 0 71 C0 47.57 0 24.14 0 0 Z " fill="#333E48" transform="translate(1655,213)"/>
<path d="M0 0 C21.45 0 42.9 0 65 0 C65 136.62 65 273.24 65 414 C43.55 414 22.1 414 0 414 C0 277.38 0 140.76 0 0 Z " fill="#333E48" transform="translate(2795,164)"/>
<path d="M0 0 C21.45 0 42.9 0 65 0 C65 97.02 65 194.04 65 294 C43.55 294 22.1 294 0 294 C0 196.98 0 99.96 0 0 Z " fill="#333E48" transform="translate(2658,284)"/>
<path d="M0 0 C6.75688974 4.29983893 13.49834836 8.60604519 20.1875 13.0078125 C21.03098999 13.56230072 21.87447998 14.11678894 22.74353027 14.68807983 C25.49658282 16.4990297 28.24844666 18.31177315 31 20.125 C31.95962646 20.75704346 32.91925293 21.38908691 33.90795898 22.0402832 C49.05064535 32.01862153 64.11127752 42.1128694 79.12817383 52.27926636 C99.38366308 65.98798944 119.80705225 79.43913482 140.25817871 92.85368347 C141.84272472 93.89649497 143.42168111 94.94778741 145 96 C143.87649315 99.37052055 143.38326247 99.69333942 140.52978516 101.54248047 C139.78600616 102.03042084 139.04222717 102.51836121 138.27590942 103.02108765 C137.45524994 103.5478006 136.63459045 104.07451355 135.7890625 104.6171875 C134.93142303 105.17733551 134.07378357 105.73748352 133.19015503 106.31460571 C131.32311362 107.53310006 129.45371153 108.74798297 127.58227539 109.9597168 C122.52549226 113.23474889 117.48638574 116.53679646 112.4453125 119.8359375 C111.40534119 120.51561584 110.36536987 121.19529419 109.29388428 121.89556885 C98.95843045 128.65970792 88.72388463 135.56888502 78.5 142.5 C59.04409646 155.67651952 39.44828852 168.63456671 19.80130005 181.52407837 C14.17967319 185.2145917 8.58630547 188.94398513 3.01733398 192.71362305 C1 194 1 194 0 194 C0 129.98 0 65.96 0 0 Z " fill="#FEC007" transform="translate(208,279)"/>
<path d="M0 0 C21.45 0 42.9 0 65 0 C65 18.48 65 36.96 65 56 C43.55 56 22.1 56 0 56 C0 37.52 0 19.04 0 0 Z " fill="#333E48" transform="translate(2658,172)"/>
</svg>
